<?xml version="1.0" standalone="no"?><!DOCTYPE svg PUBLIC "-//W3C//DTD SVG 1.1//EN" "http://www.w3.org/Graphics/SVG/1.1/DTD/svg11.dtd"><svg t="1576409794500" class="icon" viewBox="0 0 1126 1024" version="1.1" xmlns="http://www.w3.org/2000/svg" p-id="3650" xmlns:xlink="http://www.w3.org/1999/xlink" width="563" height="512"><defs><style type="text/css"></style></defs><path d="M873.645 245.914c-23.515 0-42.755 19.239-42.755 41.686 0 23.515 19.239 42.755 42.755 42.755 23.515 0 42.755-19.239 42.755-42.755 0-22.446-19.239-41.686-42.755-41.686zM942.052 940.667h-767.436c-75.888 0-112.229-36.341-112.229-109.023v-524.806c0-35.272 12.826-67.338 39.548-94.058 25.653-26.722 59.856-36.341 94.058-36.341h25.653c11.757 0 24.584-7.482 35.273-13.896 10.688-7.482 19.239-20.308 24.584-30.997l29.928-60.925c5.345-10.688 13.896-18.171 24.584-24.584 10.688-7.482 23.515-5.345 35.273-5.345h371.961c11.757 0 23.515-1.069 35.272 5.345 10.688 7.482 19.239 11.757 24.584 23.515l29.928 61.994c5.345 11.757 12.826 23.515 24.584 29.928 10.688 7.482 22.446 14.964 35.273 14.964h24.584c34.204 0 68.407 9.62 95.127 36.341 25.653 26.722 38.479 58.787 38.479 94.058v524.806c0 72.683-33.135 109.023-109.023 109.023zM559.403 245.914c-163.535 0-297.141 130.4-297.141 290.727 0 161.396 133.606 290.727 297.141 290.727 164.603 0 297.141-129.331 297.141-290.727 0-160.327-132.537-290.727-297.141-290.727zM559.403 767.513c-129.331 0-235.147-103.678-235.147-230.872s105.816-229.803 235.147-229.803c130.4 0 236.216 102.609 236.216 229.803 0 127.193-105.816 230.872-236.216 230.872z" p-id="3651" fill="#ffffff"></path></svg>